<svg width="16px" height="16px" viewBox="0 0 16 16" version="1.1" xmlns="http://www.w3.org/2000/svg" xmlns:xlink="http://www.w3.org/1999/xlink">
    <g id="Symbols" stroke="none" stroke-width="1" fill="none" fill-rule="evenodd">
        <g id="social-icons/white-icons/Facebook" transform="translate(-4.000000, -4.000000)" fill="#FFFFFF">
            <path d="M12.5461184,20 L4.88307717,20 C4.39522422,20 4,19.6045305 4,19.1168676 L4,4.88307032 C4,4.39528323 4.3952863,4 4.88307717,4 L19.1169849,4 C19.6046516,4 20,4.39528323 20,4.88307032 L20,19.1168676 C20,19.6045926 19.6045895,20 19.1169849,20 L15.0397684,20 L15.0397684,13.8039182 L17.1195071,13.8039182 L17.4309184,11.3891952 L15.0397684,11.3891952 L15.0397684,9.84754713 C15.0397684,9.1484291 15.2339039,8.67200323 16.2364299,8.67200323 L17.5151038,8.67144448 L17.5151038,6.51169685 C17.293962,6.48226945 16.5349278,6.41652342 15.6518507,6.41652342 C13.8082781,6.41652342 12.5461184,7.54184208 12.5461184,9.60840295 L12.5461184,11.3891952 L10.4610406,11.3891952 L10.4610406,13.8039182 L12.5461184,13.8039182 L12.5461184,20 L12.5461184,20 Z" id="Facebook"></path>
        </g>
    </g>
</svg>