<svg width="16px" height="16px" viewBox="0 0 16 16" version="1.1" xmlns="http://www.w3.org/2000/svg" xmlns:xlink="http://www.w3.org/1999/xlink">
    <g id="Symbols" stroke="none" stroke-width="1" fill="none" fill-rule="evenodd">
        <g id="social-icons/white-icons/Instagram" transform="translate(-4.000000, -4.000000)" fill="#FFFFFF">
            <path d="M12.0000159,4 C14.1726696,4 14.4451047,4.00920925 15.2983898,4.04814217 C16.1498965,4.08697982 16.731445,4.22222884 17.240304,4.42000552 C17.7663747,4.62441921 18.2125155,4.89796583 18.6572907,5.34270931 C19.1020342,5.78748454 19.3755808,6.23362529 19.5800262,6.75969602 C19.7777712,7.26855496 19.9130202,7.8501035 19.9518578,8.70161023 C19.9907907,9.55489529 20,9.82733045 20,12.0000159 C20,14.1726696 19.9907907,14.4451047 19.9518578,15.2983898 C19.9130202,16.1498965 19.7777712,16.731445 19.5800262,17.240304 C19.3755808,17.7663747 19.1020342,18.2125155 18.6572907,18.6572907 C18.2125155,19.1020342 17.7663747,19.3755808 17.240304,19.5800262 C16.731445,19.7777712 16.1498965,19.9130202 15.2983898,19.9518578 C14.4451047,19.9907907 14.1726696,20 12.0000159,20 C9.82733045,20 9.55489529,19.9907907 8.70161023,19.9518578 C7.8501035,19.9130202 7.26855496,19.7777712 6.75969602,19.5800262 C6.23362529,19.3755808 5.78748454,19.1020342 5.34270931,18.6572907 C4.89796583,18.2125155 4.62441921,17.7663747 4.42000552,17.240304 C4.22222884,16.731445 4.08697982,16.1498965 4.04814217,15.2983898 C4.00920925,14.4451047 4,14.1726696 4,12.0000159 C4,9.82733045 4.00920925,9.55489529 4.04814217,8.70161023 C4.08697982,7.8501035 4.22222884,7.26855496 4.42000552,6.75969602 C4.62441921,6.23362529 4.89796583,5.78748454 5.34270931,5.34270931 C5.78748454,4.89796583 6.23362529,4.62441921 6.75969602,4.42000552 C7.26855496,4.22222884 7.8501035,4.08697982 8.70161023,4.04814217 C9.55489529,4.00920925 9.82733045,4 12.0000159,4 Z M12.0000159,5.44143887 C9.86391342,5.44143887 9.61088121,5.44960017 8.7673135,5.4880885 C7.9873214,5.52365528 7.56372745,5.65398211 7.28182899,5.76354048 C6.9084096,5.90866563 6.64191283,6.08202191 6.36198324,6.36198324 C6.08202191,6.64191283 5.90866563,6.9084096 5.76354048,7.28182899 C5.65398211,7.56372745 5.52365528,7.9873214 5.4880885,8.7673135 C5.44960017,9.61088121 5.44143887,9.86391342 5.44143887,12.0000159 C5.44143887,14.1360866 5.44960017,14.3891188 5.4880885,15.2326865 C5.52365528,16.0126786 5.65398211,16.4362726 5.76354048,16.718171 C5.90866563,17.0915904 6.08205366,17.3580872 6.36198324,17.6380168 C6.64191283,17.9179781 6.9084096,18.0913344 7.28182899,18.2364595 C7.56372745,18.3460179 7.9873214,18.4763447 8.7673135,18.5119115 C9.61078594,18.5503998 9.86375464,18.5585611 12.0000159,18.5585611 C14.1362454,18.5585611 14.3892458,18.5503998 15.2326865,18.5119115 C16.0126786,18.4763447 16.4362726,18.3460179 16.718171,18.2364595 C17.0915904,18.0913344 17.3580872,17.9179781 17.6380168,17.6380168 C17.9179781,17.3580872 18.0913344,17.0915904 18.2364595,16.718171 C18.3460179,16.4362726 18.4763447,16.0126786 18.5119115,15.2326865 C18.5503998,14.3891188 18.5585611,14.1360866 18.5585611,12.0000159 C18.5585611,9.86391342 18.5503998,9.61088121 18.5119115,8.7673135 C18.4763447,7.9873214 18.3460179,7.56372745 18.2364595,7.28182899 C18.0913344,6.9084096 17.9179781,6.64191283 17.6380168,6.36198324 C17.3580872,6.08202191 17.0915904,5.90866563 16.718171,5.76354048 C16.4362726,5.65398211 16.0126786,5.52365528 15.2326865,5.4880885 C14.3891188,5.44960017 14.1360866,5.44143887 12.0000159,5.44143887 Z M12.0000159,7.89189447 C14.2688586,7.89189447 16.1081055,9.73114137 16.1081055,12.0000159 C16.1081055,14.2688586 14.2688586,16.1081055 12.0000159,16.1081055 C9.73114137,16.1081055 7.89189447,14.2688586 7.89189447,12.0000159 C7.89189447,9.73114137 9.73114137,7.89189447 12.0000159,7.89189447 Z M12.0000159,14.6666667 C13.4727662,14.6666667 14.6666667,13.4727662 14.6666667,12.0000159 C14.6666667,10.5272338 13.4727662,9.33333333 12.0000159,9.33333333 C10.5272338,9.33333333 9.33333333,10.5272338 9.33333333,12.0000159 C9.33333333,13.4727662 10.5272338,14.6666667 12.0000159,14.6666667 Z M17.2304279,7.7295893 C17.2304279,8.25978831 16.8006097,8.68957469 16.2704107,8.68957469 C15.7402434,8.68957469 15.3104253,8.25978831 15.3104253,7.7295893 C15.3104253,7.19939028 15.7402434,6.76957215 16.2704107,6.76957215 C16.8006097,6.76957215 17.2304279,7.19939028 17.2304279,7.7295893 Z" id="Instagram"></path>
        </g>
    </g>
</svg>