<?xml version="1.0" encoding="UTF-8"?>
<svg width="15px" height="14px" viewBox="0 0 15 14" version="1.1" xmlns="http://www.w3.org/2000/svg" xmlns:xlink="http://www.w3.org/1999/xlink">
    <!-- Generator: Sketch 52.4 (67378) - http://www.bohemiancoding.com/sketch -->
    <title>LinkedIn-black</title>
    <desc>Created with Sketch.</desc>
    <g id="Symbols" stroke="none" stroke-width="1" fill="none" fill-rule="evenodd">
        <g id="social-icons/white-icons/LinkedIn" transform="translate(-5.000000, -5.000000)" fill="#FFFFFF">
            <path d="M19.6666667,18.6666667 L16.4251333,18.6666667 L16.4251333,13.9794668 C16.4251333,12.7525987 15.9180778,11.9150498 14.8030731,11.9150498 C13.9502195,11.9150498 13.4759329,12.4802459 13.255174,13.0249514 C13.1723895,13.2204649 13.1853246,13.4928177 13.1853246,13.7651704 L13.1853246,18.6666667 L9.97397303,18.6666667 C9.97397303,18.6666667 10.0153653,10.3637489 9.97397303,9.60901582 L13.1853246,9.60901582 L13.1853246,11.0305436 C13.3750392,10.4089987 14.401223,9.52193123 16.0388053,9.52193123 C18.0704766,9.52193123 19.6666667,10.824785 19.6666667,13.6302747 L19.6666667,18.6666667 L19.6666667,18.6666667 Z M6.72640326,8.47606241 L6.70570712,8.47606241 C5.67089997,8.47606241 5,7.78365456 5,6.90597853 C5,6.01122708 5.69073377,5.33333333 6.74623706,5.33333333 C7.80087802,5.33333333 8.44935717,6.00951954 8.47005331,6.90341722 C8.47005331,7.78109325 7.80087802,8.47606241 6.72640326,8.47606241 L6.72640326,8.47606241 L6.72640326,8.47606241 Z M5.36994356,9.60901582 L8.22859831,9.60901582 L8.22859831,18.6666667 L5.36994356,18.6666667 L5.36994356,9.60901582 L5.36994356,9.60901582 Z" id="LinkedIn"></path>
        </g>
    </g>
</svg>