<svg width="16px" height="14px" viewBox="0 0 16 14" version="1.1" xmlns="http://www.w3.org/2000/svg" xmlns:xlink="http://www.w3.org/1999/xlink">
    <g id="Symbols" stroke="none" stroke-width="1" fill="none" fill-rule="evenodd">
        <g id="social-icons/white-icons/Twitter" transform="translate(-5.000000, -5.000000)" fill="#FFFFFF">
            <path d="M21,6.91176117 C20.4121031,7.17948718 19.7791278,7.3605393 19.1151611,7.44143493 C19.7932148,7.02540026 20.3134942,6.36571566 20.5586077,5.5798724 C19.9237542,5.96508968 19.2222222,6.24533526 18.4727945,6.39557 C17.8755063,5.74166366 17.0218348,5.33333333 16.0770676,5.33333333 C14.265481,5.33333333 12.7957387,6.84049597 12.7957387,8.69916938 C12.7957387,8.96304322 12.8239127,9.21921271 12.8802606,9.46575178 C10.1520808,9.32514747 7.73381464,7.98651739 6.11381112,5.94775491 C5.83113224,6.44661129 5.66960146,7.02540026 5.66960146,7.64174792 C5.66960146,8.8089563 6.24904619,9.83941254 7.12995246,10.4432406 C6.59276868,10.4268689 6.08563714,10.273745 5.64236661,10.0233538 L5.64236661,10.0647647 C5.64236661,11.6961599 6.77402125,13.0569399 8.27663321,13.3651138 C8.00146739,13.4440833 7.71127546,13.4835681 7.4116922,13.4835681 C7.20038739,13.4835681 6.99377825,13.4633442 6.79374303,13.4238594 C7.21165698,14.7605634 8.42313788,15.7342001 9.86001057,15.7602022 C8.73680812,16.6635368 7.32059635,17.2018779 5.78323649,17.2018779 C5.51840113,17.2018779 5.25638317,17.1864692 5,17.1556519 C6.45283794,18.1090646 8.17896343,18.6666667 10.0318718,18.6666667 C16.0704936,18.6666667 19.3715443,13.5384615 19.3715443,9.09016492 C19.3715443,8.94378235 19.3687269,8.79739978 19.3630921,8.65390634 C20.0045196,8.17912604 20.5614251,7.58685446 21,6.91176117" id="Twitter"></path>
        </g>
    </g>
</svg>