<svg width="16px" height="12px" viewBox="0 0 16 12" version="1.1" xmlns="http://www.w3.org/2000/svg" xmlns:xlink="http://www.w3.org/1999/xlink">
    <g id="Symbols" stroke="none" stroke-width="1" fill="none" fill-rule="evenodd">
        <g id="social-icons/white-icons/Youtube" transform="translate(-4.000000, -6.000000)" fill="#FFFFFF">
            <path d="M10.348,14.089972 L10.3475,9.56258053 L14.6705,11.8340812 L10.348,14.089972 Z M19.84,8.77805423 C19.84,8.77805423 19.6835,7.667733 19.204,7.17878882 C18.5955,6.53676634 17.9135,6.53374506 17.601,6.49648258 C15.362,6.33333333 12.0035,6.33333333 12.0035,6.33333333 L11.9965,6.33333333 C11.9965,6.33333333 8.638,6.33333333 6.399,6.49648258 C6.086,6.53374506 5.4045,6.53676634 4.7955,7.17878882 C4.316,7.667733 4.16,8.77805423 4.16,8.77805423 C4.16,8.77805423 4,10.0822411 4,11.3859244 L4,12.6085366 C4,13.9127234 4.16,15.2164067 4.16,15.2164067 C4.16,15.2164067 4.316,16.326728 4.7955,16.8156722 C5.4045,17.4576946 6.204,17.4375528 6.56,17.5045245 C7.84,17.6283971 12,17.6666667 12,17.6666667 C12,17.6666667 15.362,17.6616312 17.601,17.498482 C17.9135,17.4607159 18.5955,17.4576946 19.204,16.8156722 C19.6835,16.326728 19.84,15.2164067 19.84,15.2164067 C19.84,15.2164067 20,13.9127234 20,12.6085366 L20,11.3859244 C20,10.0822411 19.84,8.77805423 19.84,8.77805423 L19.84,8.77805423 Z" id="Youtube"></path>
        </g>
    </g>
</svg>