<svg xmlns="http://www.w3.org/2000/svg" xmlns:xlink="http://www.w3.org/1999/xlink" viewBox="0 0 57.91 38.74"><defs><style>.cls-1{fill:none;}.cls-2{clip-path:url(#clip-path);}.cls-3{clip-path:url(#clip-path-2);}.cls-4,.cls-7{fill:#373535;}.cls-5{clip-path:url(#clip-path-3);}.cls-6{fill:#fff;}.cls-7{font-size:6px;font-family:Europa-Regular, Europa-Regular;letter-spacing:0.2em;}.cls-8{letter-spacing:0.2em;}.cls-9{letter-spacing:0.2em;}.cls-10{letter-spacing:0.15em;}.cls-11{letter-spacing:0em;}</style><clipPath id="clip-path" transform="translate(-9 0)"><rect class="cls-1" width="75.94" height="39.74"/></clipPath><clipPath id="clip-path-2" transform="translate(-9 0)"><rect class="cls-1" x="27.66" width="22.36" height="28.1"/></clipPath><clipPath id="clip-path-3" transform="translate(-9 0)"><rect class="cls-1" x="25.91" y="0.05" width="10.98" height="28.05"/></clipPath></defs><title>logo-black</title><g id="Layer_2" data-name="Layer 2"><g id="Layer_1-2" data-name="Layer 1"><g id="Artwork_6" data-name="Artwork 6"><g class="cls-2"><g class="cls-3"><path class="cls-4" d="M30.25,4.66C30,1.88,29.81,1.14,28.64.94L27.8.8A.49.49,0,0,1,28,0c1,.07,2.08.1,3.25.1,1.57,0,2.58,0,3.65-.1a.48.48,0,0,1,0,.8L34,.94c-1.44.2-1.6.43-1.4,2.44L33.73,16a5.53,5.53,0,0,0,.33,2,10.52,10.52,0,0,0,1.51-2l3.82-5.69c1.57-2.35,4-6,5-7.51.77-1.24.7-1.67-.1-1.81L43,.8c-.2-.2-.17-.7.1-.8,1.3.07,2.51.1,3.75.1s2.11,0,3-.1c.27.13.2.6.07.8l-1,.14a2.86,2.86,0,0,0-2,1.14c-.81.87-3.38,4.28-5.7,7.67L38.42,13.9C36.94,16,33,22.07,32.69,22.64a.68.68,0,0,1-.4.1,1,1,0,0,1-.44-.1c0-1.07-.16-2.81-.23-3.62Z" transform="translate(-9 0)"/><path class="cls-4" d="M39.23,23c0,3.52.07,4,2.21,4.19l.9.1a.66.66,0,0,1-.06.84c-1.91-.07-3-.1-4.36-.1s-2.61,0-4.08.1a.66.66,0,0,1-.07-.84l.7-.1c2-.27,2-.67,2-4.19V10.61c0-2.84-.06-3.41-1.57-3.58L33.7,6.9a.56.56,0,0,1,.07-.84,53.54,53.54,0,0,1,6.63-.27c2.78,0,4.86.37,6.43,1.34a5.78,5.78,0,0,1,2.68,5,5.67,5.67,0,0,1-3.35,5.33,11.34,11.34,0,0,1-4.62,1c-.23-.1-.23-.6,0-.67,3.61-.66,4.92-2.71,4.92-5.62,0-3.25-1.91-5.36-5.39-5.36-1.78,0-1.81.13-1.81,1.21Z" transform="translate(-9 0)"/></g><g class="cls-5"><path class="cls-6" d="M28.49,4.7c-.26-2.78-.43-3.51-1.6-3.71L26.05.85a.49.49,0,0,1,.17-.8c1,.07,2.07.1,3.24.1,1.57,0,2.58,0,3.65-.1a.48.48,0,0,1,0,.8L32.2,1c-1.43.2-1.6.43-1.4,2.44L32,16a5.39,5.39,0,0,0,.33,2,10.43,10.43,0,0,0,1.51-2l3.81-5.68c1.57-2.34,4-6,5-7.49.77-1.24.7-1.67-.1-1.81L41.23.85c-.2-.2-.17-.7.1-.8,1.3.07,2.51.1,3.74.1s2.11,0,3-.1c.27.13.2.6.07.8l-1,.14a2.91,2.91,0,0,0-2,1.13c-.8.87-3.37,4.28-5.68,7.66l-2.84,4.14c-1.47,2.14-5.38,8.16-5.72,8.73a.68.68,0,0,1-.4.1,1,1,0,0,1-.43-.1c0-1.07-.17-2.81-.24-3.61Z" transform="translate(-9 0)"/><path class="cls-6" d="M37.46,23c0,3.51.07,3.95,2.21,4.18l.9.1a.66.66,0,0,1-.07.84c-1.9-.07-3-.1-4.35-.1s-2.6,0-4.07.1a.66.66,0,0,1-.07-.84l.7-.1c1.94-.27,2-.67,2-4.18V10.65c0-2.85-.07-3.41-1.57-3.58l-1.21-.14A.55.55,0,0,1,32,6.1a51.47,51.47,0,0,1,6.62-.27c2.77,0,4.85.37,6.42,1.34a5.77,5.77,0,0,1,2.67,5,5.66,5.66,0,0,1-3.34,5.32,11.3,11.3,0,0,1-4.61,1c-.24-.1-.24-.6,0-.67,3.61-.67,4.92-2.7,4.92-5.61,0-3.25-1.91-5.35-5.39-5.35-1.77,0-1.8.13-1.8,1.2Z" transform="translate(-9 0)"/></g><g class="cls-2"><text class="cls-7" transform="translate(0 37.22)">V<tspan class="cls-8" x="4.75" y="0">INCE</tspan><tspan class="cls-9" x="22.7" y="0"> </tspan><tspan class="cls-10" x="25.58" y="0">P</tspan><tspan class="cls-8" x="29.66" y="0">A</tspan><tspan class="cls-9" x="34.72" y="0">R</tspan><tspan class="cls-8" x="39.23" y="0">UL</tspan><tspan class="cls-9" x="48.6" y="0">A</tspan><tspan class="cls-11" x="53.65" y="0">N</tspan></text></g></g></g></g></g></svg>