<svg xmlns="http://www.w3.org/2000/svg" xmlns:xlink="http://www.w3.org/1999/xlink" viewBox="0 0 87.04 45.12"><defs><style>.cls-1{fill:none;}.cls-2{clip-path:url(#clip-path);}.cls-3{clip-path:url(#clip-path-2);}.cls-4{fill:#231f20;}.cls-5{clip-path:url(#clip-path-3);}.cls-6,.cls-7{fill:#fff;}.cls-10,.cls-7{font-size:9px;font-family:Europa-Regular, Europa-Regular;}.cls-8{letter-spacing:0.2em;}.cls-9{letter-spacing:0.2em;}.cls-11{letter-spacing:0.2em;}</style><clipPath id="clip-path" transform="translate(-8.96 0)"><rect class="cls-1" width="106.48" height="46.28"/></clipPath><clipPath id="clip-path-2" transform="translate(-8.96 0)"><rect class="cls-1" x="43.51" width="22.36" height="28.1"/></clipPath><clipPath id="clip-path-3" transform="translate(-8.96 0)"><rect class="cls-1" x="41.76" y="0.05" width="10.99" height="28.05"/></clipPath></defs><title>Asset 9</title><g id="Layer_2" data-name="Layer 2"><g id="Layer_1-2" data-name="Layer 1"><g id="Artwork_10" data-name="Artwork 10"><g class="cls-2"><g class="cls-3"><path class="cls-4" d="M46.09,4.66c-.27-2.78-.44-3.52-1.61-3.72L43.65.8a.49.49,0,0,1,.16-.8c1,.07,2.08.1,3.25.1,1.58,0,2.58,0,3.65-.1a.49.49,0,0,1,0,.8l-.94.14c-1.44.2-1.61.43-1.41,2.44L49.57,16a5.18,5.18,0,0,0,.34,2,11.47,11.47,0,0,0,1.51-2l3.81-5.69c1.58-2.35,4.06-6,5-7.51.77-1.24.7-1.67-.1-1.81L58.85.8c-.2-.2-.17-.7.1-.8,1.31.07,2.51.1,3.75.1s2.11,0,3-.1c.27.13.2.6.07.8l-1,.14a2.88,2.88,0,0,0-2,1.14C62,3,59.42,6.36,57.11,9.75L54.26,13.9c-1.47,2.14-5.39,8.17-5.72,8.74a.73.73,0,0,1-.41.1,1,1,0,0,1-.43-.1c0-1.07-.17-2.81-.24-3.62Z" transform="translate(-8.96 0)"/><path class="cls-4" d="M55.07,23c0,3.52.07,4,2.21,4.19l.91.1a.66.66,0,0,1-.07.84c-1.91-.07-3-.1-4.35-.1s-2.62,0-4.09.1a.66.66,0,0,1-.07-.84l.71-.1c1.94-.27,2-.67,2-4.19V10.61c0-2.84-.07-3.41-1.58-3.58l-1.2-.13a.56.56,0,0,1,.06-.84,53.81,53.81,0,0,1,6.64-.27c2.77,0,4.85.37,6.43,1.34a5.77,5.77,0,0,1,2.67,5A5.66,5.66,0,0,1,62,17.48a11.31,11.31,0,0,1-4.62,1c-.23-.1-.23-.6,0-.67,3.62-.66,4.92-2.71,4.92-5.62,0-3.25-1.91-5.36-5.39-5.36-1.77,0-1.81.13-1.81,1.21Z" transform="translate(-8.96 0)"/></g><g class="cls-5"><path class="cls-6" d="M44.34,4.7C44.07,1.92,43.9,1.19,42.73,1L41.9.85a.49.49,0,0,1,.16-.8c1,.07,2.08.1,3.25.1,1.57,0,2.57,0,3.64-.1a.48.48,0,0,1,0,.8L48.05,1c-1.44.2-1.61.43-1.41,2.44L47.81,16a5.05,5.05,0,0,0,.34,2,10.51,10.51,0,0,0,1.5-2l3.81-5.68c1.57-2.34,4-6,4.95-7.49.77-1.24.7-1.67-.1-1.81L57.07.85c-.2-.2-.16-.7.1-.8,1.31.07,2.51.1,3.75.1s2.1,0,3-.1c.27.13.2.6.07.8L63,1a2.89,2.89,0,0,0-2,1.13c-.8.87-3.38,4.28-5.69,7.66l-2.84,4.14c-1.47,2.14-5.38,8.16-5.71,8.73a.7.7,0,0,1-.4.1,1,1,0,0,1-.44-.1c0-1.07-.17-2.81-.23-3.61Z" transform="translate(-8.96 0)"/><path class="cls-6" d="M53.3,23c0,3.51.07,3.95,2.21,4.18l.9.1a.65.65,0,0,1-.07.84c-1.9-.07-3-.1-4.34-.1s-2.61,0-4.08.1a.66.66,0,0,1-.07-.84l.71-.1c1.93-.27,2-.67,2-4.18V10.65c0-2.85-.07-3.41-1.57-3.58l-1.2-.14a.55.55,0,0,1,.06-.83,51.56,51.56,0,0,1,6.62-.27c2.78,0,4.85.37,6.42,1.34a5.78,5.78,0,0,1,2.68,5,5.67,5.67,0,0,1-3.35,5.32,11.3,11.3,0,0,1-4.61,1c-.23-.1-.23-.6,0-.67,3.61-.67,4.91-2.7,4.91-5.61,0-3.25-1.91-5.35-5.38-5.35-1.77,0-1.81.13-1.81,1.2Z" transform="translate(-8.96 0)"/></g><text class="cls-7" transform="translate(0.04 41.32) rotate(1)"><tspan class="cls-8">V</tspan><tspan class="cls-9" x="7.12" y="0">IN</tspan><tspan class="cls-8" x="19.59" y="0">C</tspan><tspan class="cls-9" x="27.35" y="0">E</tspan><tspan class="cls-8" x="34.05" y="0"> </tspan><tspan x="38.36" y="0">P</tspan></text><text class="cls-10" transform="translate(44.56 42.09) rotate(1)"><tspan class="cls-8">A</tspan><tspan class="cls-9" x="7.57" y="0">R</tspan><tspan class="cls-8" x="14.35" y="0">U</tspan><tspan class="cls-9" x="22.2" y="0">L</tspan><tspan class="cls-11" x="28.39" y="0">A</tspan><tspan x="35.96" y="0">N</tspan></text></g></g></g></g></svg>