<svg xmlns="http://www.w3.org/2000/svg" xmlns:xlink="http://www.w3.org/1999/xlink" viewBox="0 0 87.99 59.64"><defs><style>.cls-1,.cls-4{fill:none;}.cls-2{clip-path:url(#clip-path);}.cls-3{clip-path:url(#clip-path-2);}.cls-4{stroke:#231f20;stroke-width:1.54px;}.cls-5{clip-path:url(#clip-path-3);}.cls-6{fill:#231f20;}.cls-7{clip-path:url(#clip-path-4);}.cls-8{fill:#fff;}</style><clipPath id="clip-path" transform="translate(0 0)"><rect class="cls-1" width="48.1" height="59.64"/></clipPath><clipPath id="clip-path-2" transform="translate(0 0)"><rect class="cls-1" width="48.1" height="59.64"/></clipPath><clipPath id="clip-path-3" transform="translate(0 0)"><rect class="cls-1" x="13.74" y="8.24" width="34.36" height="43.17"/></clipPath><clipPath id="clip-path-4" transform="translate(0 0)"><rect class="cls-1" x="11.05" y="8.31" width="16.88" height="43.1"/></clipPath></defs><title>Asset 5</title><g id="Layer_2" data-name="Layer 2"><g id="Layer_1-2" data-name="Layer 1"><g id="Artwork_2" data-name="Artwork 2"><g class="cls-2"><g class="cls-3"><path d="M27.93.77a29.12,29.12,0,0,0-.07,58.11" transform="translate(0 0)"/><path class="cls-4" d="M27.93.77a29.12,29.12,0,0,0-.07,58.11" transform="translate(0 0)"/></g><g class="cls-5"><path class="cls-6" d="M17.71,15.39C17.3,11.12,17,10,15.24,9.68L14,9.47a.75.75,0,0,1,.26-1.23c1.59.1,3.19.15,5,.15,2.42,0,4-.05,5.61-.15a.74.74,0,0,1,.05,1.23l-1.44.21c-2.21.31-2.47.67-2.16,3.75l1.8,19.35c.15,1.91.31,2.94.52,3.09a16,16,0,0,0,2.31-3l5.87-8.75c2.42-3.6,6.22-9.27,7.61-11.53,1.19-1.9,1.08-2.57-.15-2.78l-1.9-.31c-.31-.31-.26-1.08.15-1.23,2,.1,3.86.15,5.76.15,1.7,0,3.25-.05,4.58-.15.42.2.31.92.11,1.23l-1.5.21a4.42,4.42,0,0,0-3,1.75c-1.24,1.34-5.2,6.58-8.75,11.78l-4.37,6.38C28,32.89,22,42.15,21.47,43a1.08,1.08,0,0,1-.62.16,1.47,1.47,0,0,1-.67-.16c-.05-1.64-.26-4.32-.36-5.55Z" transform="translate(0 0)"/><path class="cls-6" d="M31.51,43.54c0,5.4.1,6.07,3.4,6.43l1.39.15a1,1,0,0,1-.11,1.29c-2.93-.1-4.63-.15-6.69-.15s-4,.05-6.27.15a1,1,0,0,1-.11-1.29L24.2,50c3-.41,3.09-1,3.09-6.43v-19c0-4.38-.1-5.25-2.42-5.51L23,18.83a.85.85,0,0,1,.1-1.28,81.27,81.27,0,0,1,10.19-.41c4.27,0,7.46.56,9.88,2.06a8.87,8.87,0,0,1,4.12,7.71,8.72,8.72,0,0,1-5.15,8.19,17.35,17.35,0,0,1-7.1,1.54c-.36-.15-.36-.93-.05-1,5.56-1,7.56-4.17,7.56-8.64,0-5-2.93-8.24-8.28-8.24-2.73,0-2.78.21-2.78,1.85Z" transform="translate(0 0)"/></g><g class="cls-7"><path class="cls-8" d="M15,15.45c-.41-4.26-.66-5.39-2.46-5.7l-1.29-.2a.77.77,0,0,1,.26-1.24c1.59.11,3.18.16,5,.16,2.42,0,4-.05,5.6-.16a.75.75,0,0,1,0,1.24l-1.43.2c-2.21.31-2.47.67-2.16,3.75l1.8,19.32c.15,1.9.31,2.93.51,3.08a16,16,0,0,0,2.31-3L29,24.14c2.41-3.6,6.21-9.25,7.6-11.51,1.18-1.9,1.08-2.57-.15-2.77l-1.9-.31c-.31-.31-.26-1.08.15-1.24,2,.11,3.85.16,5.75.16,1.7,0,3.24-.05,4.57-.16.42.21.31.93.11,1.24l-1.49.2a4.46,4.46,0,0,0-3,1.75c-1.24,1.33-5.19,6.57-8.74,11.76l-4.36,6.37C25.29,32.92,19.28,42.17,18.76,43a1.1,1.1,0,0,1-.61.15,1.59,1.59,0,0,1-.67-.15c-.05-1.64-.26-4.32-.36-5.55Z" transform="translate(0 0)"/><path class="cls-8" d="M28.79,43.55c0,5.39.1,6.06,3.39,6.42l1.39.16a1,1,0,0,1-.1,1.28c-2.93-.1-4.63-.15-6.68-.15s-4,.05-6.27.15a1,1,0,0,1-.1-1.28L21.5,50c3-.41,3.08-1,3.08-6.42V24.6c0-4.37-.1-5.24-2.42-5.5l-1.84-.21a.85.85,0,0,1,.1-1.28,80.93,80.93,0,0,1,10.17-.41c4.26,0,7.45.56,9.86,2.05A8.86,8.86,0,0,1,44.56,27a8.72,8.72,0,0,1-5.14,8.17,17.46,17.46,0,0,1-7.08,1.54c-.36-.16-.36-.93-.06-1,5.55-1,7.55-4.16,7.55-8.63,0-5-2.92-8.22-8.26-8.22-2.73,0-2.78.21-2.78,1.85Z" transform="translate(0 0)"/></g></g></g><path class="cls-6" d="M47.08,14.26c0-1,0-1.11-.55-1.15l-.22,0c-.06,0,0-.2,0-.23.45,0,.75,0,1.13,0l1.12,0c.05,0,.07.19,0,.23l-.22,0c-.53,0-.55.19-.55,1.15v3.2c0,1,0,1.08.55,1.15l.22,0c.06,0,0,.2,0,.23l-1.12,0c-.38,0-.68,0-1.13,0a.17.17,0,0,1,0-.23l.22,0c.53-.07.55-.19.55-1.15Z" transform="translate(0 0)"/><path class="cls-6" d="M55.87,17.3c0,.27,0,1.34,0,1.58,0,.05-.07.1-.17.1-.1-.16-.37-.47-1.15-1.37l-2.09-2.37c-.24-.28-.85-1-1-1.22h0a2.22,2.22,0,0,0,0,.59v2a6.76,6.76,0,0,0,.16,1.86c.05.1.23.16.46.18l.28,0a.18.18,0,0,1,0,.23l-1.06,0c-.37,0-.62,0-.93,0a.17.17,0,0,1,0-.23l.24,0c.21,0,.35-.08.4-.18A8.52,8.52,0,0,0,51,16.57V14a.83.83,0,0,0-.2-.65.91.91,0,0,0-.56-.21l-.15,0a.16.16,0,0,1,0-.23c.38,0,.86,0,1,0a2.67,2.67,0,0,0,.42,0,12,12,0,0,0,1.54,2l.87,1c.62.7,1.06,1.2,1.48,1.63h0a.82.82,0,0,0,0-.38V15.15a6.46,6.46,0,0,0-.18-1.87c-.06-.08-.2-.13-.56-.17l-.15,0a.15.15,0,0,1,0-.23l1.06,0c.38,0,.62,0,.92,0a.15.15,0,0,1,0,.23l-.12,0c-.29,0-.47.11-.51.18a7.45,7.45,0,0,0-.13,1.86Z" transform="translate(0 0)"/><path class="cls-6" d="M59.35,13.51a3.9,3.9,0,0,1,2.43-.77,6.71,6.71,0,0,1,1.59.22.64.64,0,0,0,.26,0c0,.2,0,.77.12,1.32a.19.19,0,0,1-.24,0A1.64,1.64,0,0,0,61.66,13a2.47,2.47,0,0,0-2.55,2.74,2.66,2.66,0,0,0,2.68,2.94,1.92,1.92,0,0,0,1.88-1.29.18.18,0,0,1,.23,0,3.26,3.26,0,0,1-.43,1.24,1.58,1.58,0,0,0-.31.09,5.42,5.42,0,0,1-1.43.21,4,4,0,0,1-2.24-.61,2.89,2.89,0,0,1-1.28-2.47A3,3,0,0,1,59.35,13.51Z" transform="translate(0 0)"/><path class="cls-6" d="M66.13,14.24c0-.94,0-1.07-.54-1.13l-.15,0a.2.2,0,0,1,0-.23c.39,0,.69,0,1.06,0h1.69a11,11,0,0,0,1.22,0,10,10,0,0,1,.14,1.2.18.18,0,0,1-.22,0c-.14-.43-.22-.74-.69-.86a4.66,4.66,0,0,0-.87-.05h-.65c-.27,0-.27,0-.27.36v1.8c0,.25,0,.25.3.25h.52a3.91,3.91,0,0,0,.77-.05c.11,0,.17-.09.21-.32l.08-.37a.18.18,0,0,1,.23,0c0,.22,0,.57,0,.91s0,.67,0,.86a.16.16,0,0,1-.23,0l-.09-.35a.37.37,0,0,0-.27-.34,3,3,0,0,0-.7,0h-.52c-.27,0-.3,0-.3.24v1.27c0,.48,0,.78.17.93s.3.21,1.09.21a2.68,2.68,0,0,0,1.16-.13,2.27,2.27,0,0,0,.63-.88.18.18,0,0,1,.23.07,7.63,7.63,0,0,1-.41,1.25l-2.41,0h-.81l-1.22,0c-.06,0-.07-.17,0-.23l.3,0c.51-.05.55-.18.55-1.13Z" transform="translate(0 0)"/><path class="cls-6" d="M51.76,27.37c-.06-.2-.1-.22-.37-.22H50c-.22,0-.28,0-.34.21l-.32.95a3.45,3.45,0,0,0-.19.75c0,.1,0,.16.26.18l.3,0a.15.15,0,0,1,0,.23c-.24,0-.52,0-.94,0s-.62,0-.86,0a.17.17,0,0,1,0-.23l.3,0a.62.62,0,0,0,.54-.44c.16-.42.41-1,.79-2l.92-2.43a1.34,1.34,0,0,0,.15-.64,1.1,1.1,0,0,0,.47-.34.12.12,0,0,1,.13.08c.12.39.26.81.4,1.2l1.23,3.62c.26.78.38.91.77,1l.24,0a.19.19,0,0,1,0,.23c-.37,0-.68,0-1.09,0s-.77,0-1,0a.15.15,0,0,1,0-.23l.26,0c.19,0,.31-.08.31-.17a1.83,1.83,0,0,0-.11-.47ZM50,26.57c-.07.21-.07.22.19.22h1.1c.27,0,.28,0,.2-.28L51,25c-.08-.22-.16-.46-.21-.57h0a3.7,3.7,0,0,0-.21.54Z" transform="translate(0 0)"/><path class="cls-6" d="M55.76,24.88c0-.86,0-1-.4-1.05l-.29,0c-.06-.05-.06-.19,0-.22.5-.05,1.13-.08,2-.08a3.22,3.22,0,0,1,1.5.27A1.35,1.35,0,0,1,59.34,25a1.67,1.67,0,0,1-1.13,1.51s0,.14,0,.21a10,10,0,0,0,1.81,2.4,1.12,1.12,0,0,0,.62.25.08.08,0,0,1,0,.13,1.82,1.82,0,0,1-.4,0c-.76,0-1.22-.22-1.86-1.13-.24-.34-.6-1-.88-1.36a.65.65,0,0,0-.64-.29c-.41,0-.43,0-.43.2v1.13c0,.95,0,1.05.54,1.13l.19,0a.17.17,0,0,1,0,.23c-.4,0-.71,0-1.07,0l-1.12,0c-.06,0-.07-.16,0-.23l.23,0c.52-.07.54-.18.54-1.13Zm.73,1.29c0,.16,0,.26,0,.29s.16.05.62.05a1.56,1.56,0,0,0,.93-.23,1.31,1.31,0,0,0,.45-1.12,1.33,1.33,0,0,0-1.44-1.39c-.56,0-.59,0-.59.29Z" transform="translate(0 0)"/><path class="cls-6" d="M66.53,25.78a6.57,6.57,0,0,0-.17-1.86.53.53,0,0,0-.45-.19l-.23,0a.18.18,0,0,1,0-.22c.34,0,.68,0,1,0s.62,0,.94,0a.16.16,0,0,1,0,.22l-.22,0a.54.54,0,0,0-.45.21,8.51,8.51,0,0,0-.12,1.84v1A3.16,3.16,0,0,1,66.27,29a2.39,2.39,0,0,1-1.72.66A2.17,2.17,0,0,1,62.16,27V24.86c0-.94,0-1.09-.54-1.13l-.22,0c-.06,0,0-.19,0-.22l1.11,0c.37,0,.67,0,1.11,0a.18.18,0,0,1,0,.22l-.22,0c-.52,0-.54.19-.54,1.13v1.95c0,1.45.45,2.4,1.83,2.4s1.8-1,1.8-2.39Z" transform="translate(0 0)"/><path class="cls-6" d="M69.85,24.87c0-.95,0-1.09-.59-1.13l-.22,0a.18.18,0,0,1,0-.23l1.17,0,1.1,0c.06,0,.08.19,0,.23l-.21,0c-.53,0-.55.18-.55,1.13V28c0,.57,0,.8.19,1s.27.2,1,.2.95,0,1.1-.11a2,2,0,0,0,.59-.9s.23,0,.23.06a7.7,7.7,0,0,1-.38,1.26c-.46,0-1.32,0-2.24,0h-.83l-1.17,0c-.06,0-.07-.17,0-.23l.27,0c.52-.06.54-.18.54-1.13Z" transform="translate(0 0)"/><path class="cls-6" d="M78.35,27.37c-.07-.2-.1-.22-.37-.22H76.62c-.23,0-.28,0-.34.21l-.32.95a3.76,3.76,0,0,0-.2.75c0,.1,0,.16.26.18l.3,0a.15.15,0,0,1,0,.23c-.23,0-.51,0-.93,0s-.63,0-.87,0a.2.2,0,0,1,0-.23l.3,0a.6.6,0,0,0,.54-.44c.16-.42.42-1,.79-2L77,24.36a1.22,1.22,0,0,0,.15-.64,1.1,1.1,0,0,0,.47-.34c.06,0,.12,0,.14.08.11.39.26.81.39,1.2l1.24,3.62c.26.78.38.91.76,1l.25,0a.19.19,0,0,1,0,.23c-.37,0-.69,0-1.09,0s-.78,0-1,0a.16.16,0,0,1,0-.23l.26,0c.19,0,.32-.08.32-.17a2,2,0,0,0-.12-.47Zm-1.79-.8c-.07.21-.06.22.19.22h1.11c.26,0,.28,0,.2-.28L77.57,25a4.23,4.23,0,0,0-.21-.57h0a4.68,4.68,0,0,0-.22.54Z" transform="translate(0 0)"/><path class="cls-6" d="M87.18,27.93c0,.27,0,1.34,0,1.58a.17.17,0,0,1-.17.1c-.11-.16-.37-.47-1.15-1.36L83.8,25.87c-.24-.28-.86-1-1-1.22h0a2.12,2.12,0,0,0,0,.59v2a7.25,7.25,0,0,0,.16,1.87.66.66,0,0,0,.46.17l.28,0a.16.16,0,0,1,0,.23l-1,0c-.38,0-.62,0-.94,0a.17.17,0,0,1,0-.23l.24,0c.21,0,.35-.08.4-.18a9.22,9.22,0,0,0,.11-1.86V24.6a.87.87,0,0,0-.19-.65,1,1,0,0,0-.56-.21l-.16,0a.17.17,0,0,1,0-.23c.38,0,.86,0,1,0a2.54,2.54,0,0,0,.41,0,12.62,12.62,0,0,0,1.54,2l.88,1c.62.7,1.06,1.2,1.48,1.63h0s0-.18,0-.37V25.78a6.35,6.35,0,0,0-.18-1.86c-.06-.09-.2-.14-.56-.18l-.16,0c-.06-.06,0-.2,0-.23l1.06,0c.39,0,.63,0,.93,0a.17.17,0,0,1,0,.23l-.13,0c-.28,0-.46.11-.5.18a7.44,7.44,0,0,0-.14,1.86Z" transform="translate(0 0)"/></g></g></svg>